<svg xmlns="http://www.w3.org/2000/svg" enable-background="new 0 0 24 24" height="21.05263157894737" width="21.05263157894737"><rect id="backgroundrect" width="100%" height="100%" x="0" y="0" fill="none" stroke="none" class="" style=""/><g class="currentLayer" style=""><title>Layer 1</title><path d="m109.03717847645555,-16.097257806212923 c-0.3553272247314459,-2.244597953796387 -0.6460494995117197,-3.996064538955691 -2.9072227478027357,-5.449951849937444 c-92.45775899887084,-57.73888145542145 -91.14950876235963,-62.041027533531185 -97.1496934890747,-58.22351055908203 c-70.07214384078979,45.861217283248905 -89.5747631072998,56.089442049980164 -92.37700281143188,59.66039334011078 c-2.5438199043273952,2.746231587409976 -1.3809308052062992,6.954852750778203 -1.3809308052062992,70.55179477500916 c-0.16958799362182644,7.235427495002751 62.52951593399048,46.439371301651 93.0230523109436,71.45303486251831 c2.6891810417175326,2.0150367994308476 6.0728652954101605,1.691950730323794 8.099845600128173,-0.2465656843185427 c90.64074478149415,-67.64402015304566 92.84538869857788,-64.92329536056519 92.69195194244385,-71.20646917819977 c0,0 -0.09690742492675794,-67.3974544687271 0,-66.53872570610046 zm-12.113428115844727,55.188201962471005 l-31.301098251342776,-20.056843079566956 l31.301098251342776,-22.930608641624453 zm-42.61504011154175,-27.309275104522712 l-36.12224264144897,-23.143165266036988 v-51.6087484073639 l73.69809665679931,47.23008194446563 zm-42.178956699371334,30.888728659629823 l-31.301098251342776,-22.930608641624453 l31.301098251342776,-20.056843079566956 l31.301098251342776,20.056843079566956 zm-6.056714057922368,-105.6491445980072 v51.642757467269895 c-14.043500995635988,9.17394390964508 -25.91466054916382,16.8344846534729 -35.94457902908325,23.245192445755006 l-37.753517627716064,-27.649365703582763 zm-47.29889898300171,82.11487514305114 c-15.133709526062013,9.58205262851715 -25.018266868591308,15.6696743516922 -31.438383769989017,19.7252547454834 v-42.757890566825864 zm10.740572929382324,7.8560928382873545 l36.55832605361939,26.773632411003113 v51.00508759403228 l-73.69809665679931,-53.980880335807804 zm48.671754169464116,77.78722227001191 v-51.00508759403228 l36.55832605361939,-26.773632411003113 l37.13977060317993,23.7978396692276 z" id="svg_1" class="" stroke="#ffffff" stroke-opacity="1" fill="#ffffff" fill-opacity="1" stroke-width=""/></g></svg>